<svg width="531" height="444" viewBox="0 0 531 444" fill="none" xmlns="http://www.w3.org/2000/svg">
<path fill-rule="evenodd" clip-rule="evenodd" d="M179.799 16.8795C231.526 2.08885 285.199 -3.84331 337.39 8.18437C388.722 20.0141 437.487 44.0219 469.034 83.5352C499.308 121.453 497.25 171.353 505.142 218.295C513.801 269.798 548.23 326.764 517.297 370.599C486.281 414.551 416.274 407.702 362.005 421.135C317.287 432.203 274.697 443.651 228.635 442.046C172.798 440.1 110.708 445.127 68.8595 410.919C25.3739 375.373 16.5553 316.477 9.16346 262.644C1.45494 206.504 -7.39677 145.084 25.7939 97.28C58.637 49.9763 122.275 33.3274 179.799 16.8795Z" fill="white" stroke="url(#paint0_linear_401_199)" stroke-width="2"/>
<defs>
<linearGradient id="paint0_linear_401_199" x1="14.0778" y1="102.142" x2="540.51" y2="365.352" gradientUnits="userSpaceOnUse">
<stop offset="0.473958" stop-color="#FF9401" stop-opacity="0.51"/>
<stop offset="0.885417" stop-color="#FEBC4D" stop-opacity="0"/>
</linearGradient>
</defs>
</svg>
