<svg width="641" height="582" viewBox="0 0 641 582" fill="none" xmlns="http://www.w3.org/2000/svg">
<g filter="url(#filter0_d_401_96)">
<path fill-rule="evenodd" clip-rule="evenodd" d="M307.099 62.2023C365.002 48.0831 421.685 6.2665 477.797 26.3669C537.372 47.7081 588.677 104.167 598.813 166.7C608.721 227.833 554.126 277.391 527.549 333.316C505.323 380.084 500.763 440.794 456.12 466.96C412.157 492.728 357.517 455.228 307.099 462.527C242.38 471.897 183.075 541.244 123.089 515.176C64.8925 489.887 50.8801 410.607 42.6756 347.621C35.43 291.996 52.3555 236.399 80.4549 187.868C104.524 146.298 145.745 120.377 187.728 97.0988C224.9 76.4882 265.814 72.2694 307.099 62.2023Z" fill="white"/>
<path fill-rule="evenodd" clip-rule="evenodd" d="M307.099 62.2023C365.002 48.0831 421.685 6.2665 477.797 26.3669C537.372 47.7081 588.677 104.167 598.813 166.7C608.721 227.833 554.126 277.391 527.549 333.316C505.323 380.084 500.763 440.794 456.12 466.96C412.157 492.728 357.517 455.228 307.099 462.527C242.38 471.897 183.075 541.244 123.089 515.176C64.8925 489.887 50.8801 410.607 42.6756 347.621C35.43 291.996 52.3555 236.399 80.4549 187.868C104.524 146.298 145.745 120.377 187.728 97.0988C224.9 76.4882 265.814 72.2694 307.099 62.2023Z" stroke="url(#paint0_linear_401_96)"/>
</g>
<defs>
<filter id="filter0_d_401_96" x="0.5" y="0.5" width="640" height="581" filterUnits="userSpaceOnUse" color-interpolation-filters="sRGB">
<feFlood flood-opacity="0" result="BackgroundImageFix"/>
<feColorMatrix in="SourceAlpha" type="matrix" values="0 0 0 0 0 0 0 0 0 0 0 0 0 0 0 0 0 0 127 0" result="hardAlpha"/>
<feOffset dy="20"/>
<feGaussianBlur stdDeviation="20"/>
<feColorMatrix type="matrix" values="0 0 0 0 1 0 0 0 0 0.580392 0 0 0 0 0.00392157 0 0 0 0.15 0"/>
<feBlend mode="normal" in2="BackgroundImageFix" result="effect1_dropShadow_401_96"/>
<feBlend mode="normal" in="SourceGraphic" in2="effect1_dropShadow_401_96" result="shape"/>
</filter>
<linearGradient id="paint0_linear_401_96" x1="320.5" y1="21" x2="320.5" y2="521" gradientUnits="userSpaceOnUse">
<stop stop-color="#FF9401"/>
<stop offset="1" stop-color="#FF9401" stop-opacity="0"/>
</linearGradient>
</defs>
</svg>
