<svg width="11" height="11" viewBox="0 0 11 11" fill="none" xmlns="http://www.w3.org/2000/svg">
<path d="M5.07809 3.56844L5.49992 4.23131L5.92175 3.56844C6.31075 2.95715 6.99916 2.5625 7.79158 2.5625C9.02794 2.5625 10.0416 3.57614 10.0416 4.8125C10.0416 5.34956 9.79276 5.93344 9.35062 6.53635C8.91229 7.13407 8.31696 7.70536 7.70413 8.20677C7.09377 8.70616 6.48089 9.12424 6.01924 9.41801C5.80922 9.55166 5.6315 9.65895 5.50085 9.73583C5.37009 9.65835 5.1921 9.55018 4.98173 9.41551C4.51993 9.11989 3.90683 8.69958 3.29623 8.19861C2.68315 7.6956 2.08752 7.12338 1.64898 6.52636C1.20634 5.92376 0.958252 5.34301 0.958252 4.8125C0.958252 3.57614 1.97189 2.5625 3.20825 2.5625C4.00068 2.5625 4.68909 2.95715 5.07809 3.56844Z" fill="white" stroke="#FF9401"/>
</svg>
