<svg width="154" height="30" viewBox="0 0 154 30" fill="none" xmlns="http://www.w3.org/2000/svg">
<path d="M43.256 23H46.28L42.464 16.472C44.432 15.68 45.8 13.76 45.8 11.6C45.8 8.6 43.4 6.2 40.4 6.2H33.68V23H36.44V16.88H39.704L43.256 23ZM36.44 8.792H40.4C41.864 8.792 43.04 10.016 43.04 11.6C43.04 13.16 41.864 14.408 40.4 14.408H36.44V8.792ZM49.6379 18.104H59.1899C59.2379 17.768 59.2859 17.384 59.2859 17.024C59.2859 13.568 56.8379 10.688 53.2619 10.688C49.4939 10.688 46.9259 13.448 46.9259 17C46.9259 20.6 49.4939 23.312 53.4539 23.312C55.8059 23.312 57.6059 22.328 58.7099 20.696L56.5739 19.448C55.9979 20.288 54.9179 20.936 53.4779 20.936C51.5579 20.936 50.0459 19.976 49.6379 18.104ZM49.6139 15.992C49.9739 14.192 51.2939 13.04 53.2379 13.04C54.7979 13.04 56.3099 13.928 56.6699 15.992H49.6139ZM63.4259 14.312C63.4259 13.448 64.2419 13.04 65.1779 13.04C66.1619 13.04 67.0019 13.472 67.4339 14.408L69.6179 13.184C68.7779 11.6 67.1459 10.688 65.1779 10.688C62.7299 10.688 60.7859 12.104 60.7859 14.36C60.7859 18.656 67.2419 17.456 67.2419 19.592C67.2419 20.552 66.3539 20.936 65.2019 20.936C63.8819 20.936 62.9219 20.288 62.5379 19.208L60.3059 20.504C61.0739 22.232 62.8019 23.312 65.2019 23.312C67.7939 23.312 69.8819 22.016 69.8819 19.616C69.8819 15.176 63.4259 16.496 63.4259 14.312ZM78.3877 13.496V11H75.4117V7.64L72.8197 8.408V11H70.6117V13.496H72.8197V19.256C72.8197 22.376 74.4037 23.48 78.3877 23V20.672C76.4197 20.768 75.4117 20.792 75.4117 19.256V13.496H78.3877ZM89.7504 11V12.704C88.8384 11.456 87.4224 10.688 85.5504 10.688C82.2864 10.688 79.5744 13.424 79.5744 17C79.5744 20.552 82.2864 23.312 85.5504 23.312C87.4224 23.312 88.8384 22.544 89.7504 21.272V23H92.3424V11H89.7504ZM85.9584 20.84C83.7984 20.84 82.1664 19.232 82.1664 17C82.1664 14.768 83.7984 13.16 85.9584 13.16C88.1184 13.16 89.7504 14.768 89.7504 17C89.7504 19.232 88.1184 20.84 85.9584 20.84ZM103.452 11V17.432C103.452 19.88 102.108 20.888 100.404 20.888C98.7716 20.888 97.7156 19.928 97.7156 18.104V11H95.1236V18.368C95.1236 21.488 97.0436 23.312 99.7316 23.312C101.364 23.312 102.66 22.712 103.452 21.464V23H106.044V11H103.452ZM111.667 13.016V11H109.075V23H111.667V16.952C111.667 14.264 113.659 13.472 115.363 13.592V10.784C113.851 10.784 112.387 11.384 111.667 13.016ZM126.219 11V12.704C125.307 11.456 123.891 10.688 122.019 10.688C118.755 10.688 116.043 13.424 116.043 17C116.043 20.552 118.755 23.312 122.019 23.312C123.891 23.312 125.307 22.544 126.219 21.272V23H128.811V11H126.219ZM122.427 20.84C120.267 20.84 118.635 19.232 118.635 17C118.635 14.768 120.267 13.16 122.427 13.16C124.587 13.16 126.219 14.768 126.219 17C126.219 19.232 124.587 20.84 122.427 20.84ZM138.144 10.688C136.512 10.688 135.216 11.288 134.424 12.536V11H131.832V23H134.424V16.568C134.424 14.12 135.768 13.112 137.472 13.112C139.104 13.112 140.16 14.072 140.16 15.896V23H142.752V15.632C142.752 12.512 140.832 10.688 138.144 10.688ZM152.239 13.496V11H149.263V7.64L146.671 8.408V11H144.463V13.496H146.671V19.256C146.671 22.376 148.255 23.48 152.239 23V20.672C150.271 20.768 149.263 20.792 149.263 19.256V13.496H152.239Z" fill="#FF9401"/>
<rect y="22" width="27" height="1" rx="0.5" fill="#FF9401"/>
</svg>
