<svg width="664" height="626" viewBox="0 0 664 626" fill="none" xmlns="http://www.w3.org/2000/svg">
<g filter="url(#filter0_d_401_73)">
<path fill-rule="evenodd" clip-rule="evenodd" d="M335.065 85.5369C381.764 95.371 431.211 74.9414 474.387 95.288C523.227 118.304 563.936 156.645 588.284 204.867C615.497 258.764 631.307 320.295 617.703 379.129C603.43 440.858 566.273 498.169 512.672 531.882C460.782 564.518 396.315 554.824 335.065 556.894C271.214 559.052 202.047 579.102 148.524 544.188C94.2787 508.803 76.9339 439.254 59.1814 376.932C42.0425 316.764 33.8705 254.876 48.8082 194.123C64.6307 129.772 83.5455 49.5091 145.462 26.0222C208.952 1.93811 268.622 71.5452 335.065 85.5369Z" fill="white"/>
<path fill-rule="evenodd" clip-rule="evenodd" d="M335.065 85.5369C381.764 95.371 431.211 74.9414 474.387 95.288C523.227 118.304 563.936 156.645 588.284 204.867C615.497 258.764 631.307 320.295 617.703 379.129C603.43 440.858 566.273 498.169 512.672 531.882C460.782 564.518 396.315 554.824 335.065 556.894C271.214 559.052 202.047 579.102 148.524 544.188C94.2787 508.803 76.9339 439.254 59.1814 376.932C42.0425 316.764 33.8705 254.876 48.8082 194.123C64.6307 129.772 83.5455 49.5091 145.462 26.0222C208.952 1.93811 268.622 71.5452 335.065 85.5369Z" stroke="url(#paint0_linear_401_73)"/>
</g>
<defs>
<filter id="filter0_d_401_73" x="0.5" y="0.499878" width="662.672" height="624.572" filterUnits="userSpaceOnUse" color-interpolation-filters="sRGB">
<feFlood flood-opacity="0" result="BackgroundImageFix"/>
<feColorMatrix in="SourceAlpha" type="matrix" values="0 0 0 0 0 0 0 0 0 0 0 0 0 0 0 0 0 0 127 0" result="hardAlpha"/>
<feOffset dy="20"/>
<feGaussianBlur stdDeviation="20"/>
<feColorMatrix type="matrix" values="0 0 0 0 1 0 0 0 0 0.580392 0 0 0 0 0.00392157 0 0 0 0.15 0"/>
<feBlend mode="normal" in2="BackgroundImageFix" result="effect1_dropShadow_401_73"/>
<feBlend mode="normal" in="SourceGraphic" in2="effect1_dropShadow_401_73" result="shape"/>
</filter>
<linearGradient id="paint0_linear_401_73" x1="331.836" y1="21" x2="331.836" y2="564.571" gradientUnits="userSpaceOnUse">
<stop stop-color="#FF9401"/>
<stop offset="1" stop-color="#FF9401" stop-opacity="0"/>
</linearGradient>
</defs>
</svg>
